<?xml version="1.0" standalone="no"?>
<!DOCTYPE svg PUBLIC "-//W3C//DTD SVG 20010904//EN"
 "http://www.w3.org/TR/2001/REC-SVG-20010904/DTD/svg10.dtd">
<svg version="1.0" xmlns="http://www.w3.org/2000/svg"
 width="511.000000pt" height="511.000000pt" viewBox="0 0 511.000000 511.000000"
 preserveAspectRatio="xMidYMid meet">
<metadata>
Created by potrace 1.14, written by Peter Selinger 2001-2017
</metadata>
<g transform="translate(0.000000,511.000000) scale(0.100000,-0.100000)"
fill="#000000" stroke="none">
<path d="M628 4580 c-30 -9 -71 -43 -178 -150 -163 -162 -288 -358 -370 -580
-31 -83 -43 -127 -70 -260 -5 -25 -8 -142 -6 -260 2 -200 4 -221 29 -305 15
-49 61 -158 102 -241 84 -171 107 -222 140 -314 55 -154 77 -245 104 -440 5
-36 10 -374 10 -752 1 -484 5 -695 13 -712 23 -51 57 -57 304 -54 l226 3 29
33 29 32 1 623 c0 342 2 642 5 667 8 76 44 246 65 312 28 86 79 208 87 208 19
0 221 -188 352 -326 272 -286 519 -644 684 -989 18 -38 50 -104 70 -145 95
-198 226 -313 446 -392 l65 -23 690 0 c607 0 878 5 1006 20 225 25 341 51 448
102 86 41 144 96 177 167 71 154 -34 402 -276 647 -109 110 -154 148 -256 217
-154 103 -369 192 -522 214 l-79 12 -49 -36 c-134 -97 -301 -147 -475 -142
-118 3 -189 22 -308 80 -73 36 -110 63 -167 119 -40 39 -78 83 -84 96 -5 13
-102 155 -215 314 -112 160 -209 297 -215 305 -6 8 -83 119 -172 245 -358 511
-556 750 -938 1135 -157 159 -291 284 -445 416 -180 154 -203 168 -257 154z
m60 -251 c96 -75 340 -299 495 -454 387 -387 618 -676 1097 -1365 6 -8 78
-112 162 -230 83 -118 186 -268 230 -332 144 -213 289 -325 508 -392 233 -71
459 -54 695 53 36 17 80 40 98 53 36 26 43 26 154 -8 294 -90 613 -353 739
-610 63 -126 54 -178 -38 -225 -43 -22 -164 -55 -237 -65 -25 -3 -48 -7 -51
-9 -3 -2 -43 -6 -90 -10 -47 -3 -105 -8 -130 -11 -25 -3 -367 -7 -760 -9 -613
-4 -724 -2 -780 11 -154 36 -286 152 -357 312 -52 119 -159 322 -239 455 -313
518 -714 943 -1219 1292 -127 88 -180 121 -309 193 -89 51 -266 140 -358 181
-111 50 -106 41 -106 196 0 141 33 325 77 430 5 11 21 49 36 85 32 77 100 194
161 276 43 57 180 204 190 204 3 0 18 -9 32 -21z m-275 -1448 c204 -106 369
-207 517 -315 30 -22 56 -41 58 -42 2 -1 -10 -28 -27 -60 -67 -129 -109 -251
-137 -403 -9 -47 -19 -97 -21 -111 -3 -14 -7 -293 -10 -620 -2 -327 -6 -601
-8 -607 -3 -9 -32 -13 -100 -12 l-95 1 -1 611 c0 337 -2 628 -4 647 -2 19 -6
60 -10 90 -3 30 -8 66 -9 80 -21 183 -106 440 -222 673 -35 70 -59 127 -53
127 6 0 61 -26 122 -59z"/>
<path d="M2905 1112 c-52 -3 -83 -20 -101 -54 -17 -33 -18 -59 -3 -92 25 -55
25 -55 652 -55 384 0 585 3 601 10 28 13 56 58 56 91 0 41 -36 86 -73 93 -33
7 -1052 13 -1132 7z"/>
<path d="M4345 1086 c-17 -16 -29 -39 -32 -65 -5 -36 -2 -44 31 -77 31 -31 40
-35 73 -31 44 6 93 54 93 92 0 88 -103 138 -165 81z"/>
</g>
</svg>
