<?xml version="1.0" standalone="no"?>
<!DOCTYPE svg PUBLIC "-//W3C//DTD SVG 20010904//EN"
 "http://www.w3.org/TR/2001/REC-SVG-20010904/DTD/svg10.dtd">
<svg version="1.0" xmlns="http://www.w3.org/2000/svg"
 width="260.000000pt" height="260.000000pt" viewBox="0 0 260.000000 260.000000"
 preserveAspectRatio="xMidYMid meet">
<metadata>
Created by potrace 1.14, written by Peter Selinger 2001-2017
</metadata>
<g transform="translate(0.000000,260.000000) scale(0.100000,-0.100000)"
fill="#000000" stroke="none">
<path d="M0 2479 c0 -104 2 -120 14 -110 8 7 18 27 21 44 4 18 21 58 38 90 28
53 33 58 56 52 14 -4 33 -12 41 -20 8 -7 24 -15 35 -17 14 -3 19 -11 18 -26
-2 -12 1 -22 6 -22 26 0 42 -34 36 -72 -5 -29 -3 -44 9 -57 16 -17 16 -20 1
-35 -9 -9 -22 -16 -29 -16 -18 0 -46 -33 -46 -55 0 -10 10 -29 21 -41 16 -17
20 -30 15 -48 -6 -24 -11 -26 -58 -26 -37 0 -54 5 -64 18 -17 21 -18 42 -2 42
6 0 19 7 29 16 17 16 17 17 -2 33 -19 15 -20 19 -6 46 8 17 24 51 36 78 l21
47 -23 0 c-29 -1 -51 -15 -115 -74 l-52 -50 0 -759 c1 -707 2 -758 18 -752 9
4 33 12 52 17 19 6 40 13 45 16 6 4 19 5 30 4 12 -2 37 11 58 30 31 28 37 40
37 72 0 31 -3 37 -16 32 -9 -3 -22 -6 -30 -6 -8 0 -14 -10 -14 -25 0 -14 -6
-25 -12 -25 -7 0 -22 -13 -32 -29 -27 -40 -67 -37 -78 6 -5 18 -18 39 -29 47
l-21 14 28 36 c16 20 32 36 37 36 10 0 9 42 -2 59 -11 17 4 51 22 51 10 0 57
-69 57 -84 0 -3 -14 -12 -30 -21 -39 -20 -38 -35 1 -35 22 0 32 5 36 20 6 23
20 25 42 6 26 -22 67 -28 81 -11 7 8 21 15 32 15 10 0 33 7 50 16 31 16 33 16
50 -6 l17 -22 83 27 c106 33 270 45 294 20 12 -11 20 -13 29 -5 7 6 25 9 39 6
15 -3 24 -1 21 5 -4 5 -1 9 5 9 6 0 28 16 48 36 20 20 29 34 20 30 -13 -4 -18
0 -18 13 0 10 -7 24 -15 31 -22 18 -18 37 9 55 13 9 31 36 39 62 14 43 14 49
-3 82 -10 20 -32 49 -49 65 -28 27 -31 36 -31 88 0 52 3 62 29 86 21 19 32 43
40 83 13 62 5 98 -28 121 -32 23 -56 98 -86 273 -16 88 -14 105 10 105 17 0
25 22 25 67 0 49 -79 197 -137 257 -71 73 -128 106 -182 106 -44 0 -47 -2 -63
-41 -15 -36 -20 -40 -33 -29 -9 8 -23 26 -31 42 l-15 28 -214 0 -215 0 0 -121z
m550 -80 c31 -49 32 -54 26 -122 -6 -66 -25 -149 -47 -205 -5 -13 -9 -45 -9
-72 0 -27 -4 -51 -9 -54 -11 -7 -277 -36 -327 -36 -34 0 -34 0 -34 46 0 54 26
114 49 114 9 0 41 -7 71 -15 67 -18 120 -19 156 -3 l27 12 -7 88 c-4 70 -2
106 14 174 21 88 35 124 49 124 4 0 22 -23 41 -51z m236 -481 c33 -38 93 -135
100 -162 6 -24 -14 -104 -38 -149 -5 -10 -6 -22 -3 -27 3 -5 0 -23 -8 -41 -10
-26 -23 -35 -65 -49 -48 -16 -53 -16 -61 -1 -25 47 -43 139 -48 254 -3 70 -10
130 -15 133 -22 14 -6 41 30 51 61 17 87 15 108 -9z m-686 -73 c11 -13 8 -15
-14 -15 -16 0 -26 5 -26 15 0 8 6 15 14 15 7 0 19 -7 26 -15z m70 -166 c57
-10 188 -10 260 0 30 5 60 5 66 0 6 -5 14 -60 18 -121 4 -62 11 -151 15 -198
6 -64 5 -88 -5 -99 -18 -20 -92 -30 -229 -30 -97 0 -128 3 -162 19 -47 21 -49
26 -58 135 -3 39 -10 118 -16 177 -14 130 -10 143 34 133 17 -4 52 -11 77 -16z
m599 -548 c17 -11 7 -45 -12 -39 -13 5 -23 48 -10 48 4 0 14 -4 22 -9z m-739
-291 c0 -5 -4 -10 -10 -10 -5 0 -10 5 -10 10 0 6 5 10 10 10 6 0 10 -4 10 -10z"/>
<path d="M1704 2476 c-3 -7 2 -61 10 -119 9 -57 16 -116 16 -130 0 -14 18 -85
41 -159 53 -172 58 -194 49 -207 -13 -21 -60 63 -104 187 -67 189 -94 213
-135 124 l-23 -48 30 -54 c16 -30 61 -114 101 -187 39 -73 71 -138 71 -144 0
-7 11 -9 33 -5 144 25 186 15 213 -54 14 -36 44 -56 44 -30 0 13 36 13 59 0
33 -17 73 -19 107 -5 19 8 34 17 34 20 0 4 -11 21 -24 38 -13 18 -54 93 -91
167 -37 74 -92 177 -123 228 -31 51 -66 107 -76 125 -57 93 -130 201 -157 232
-32 36 -66 46 -75 21z m221 -686 c3 -5 1 -10 -4 -10 -6 0 -11 5 -11 10 0 6 2
10 4 10 3 0 8 -4 11 -10z"/>
<path d="M1231 2466 c-7 -8 -15 -39 -18 -69 -10 -98 53 -652 81 -704 13 -26
13 -26 19 18 3 24 4 60 2 79 -3 19 -2 54 1 77 5 37 12 46 50 70 24 16 44 32
44 37 0 20 44 -31 62 -72 17 -38 22 -42 35 -30 9 7 19 11 22 8 3 -3 13 16 23
42 17 45 17 51 0 132 -10 46 -25 93 -33 103 -9 10 -30 44 -48 76 -29 52 -95
141 -128 175 -7 7 -13 16 -13 20 0 9 -63 52 -77 52 -6 0 -16 -6 -22 -14z"/>
<path d="M2495 1510 c-3 -5 -1 -10 4 -10 6 0 11 5 11 10 0 6 -2 10 -4 10 -3 0
-8 -4 -11 -10z"/>
<path d="M1875 1500 c-8 -13 5 -13 25 0 13 8 13 10 -2 10 -9 0 -20 -4 -23 -10z"/>
<path d="M1962 1478 c-38 -24 -40 -36 -8 -44 28 -7 42 -1 55 24 16 31 -11 43
-47 20z"/>
<path d="M2507 1460 c-3 -11 -2 -20 3 -20 12 0 21 28 11 35 -5 2 -11 -4 -14
-15z"/>
<path d="M2476 1453 c-6 -14 -5 -15 5 -6 7 7 10 15 7 18 -3 3 -9 -2 -12 -12z"/>
<path d="M2446 1394 c-5 -14 -4 -15 9 -4 17 14 19 20 6 20 -5 0 -12 -7 -15
-16z"/>
<path d="M1766 1360 c-21 -22 -42 -38 -46 -35 -8 5 -23 -25 -16 -32 2 -3 15 3
29 11 21 15 26 15 37 1 10 -13 16 -11 46 11 25 20 34 34 34 56 0 27 -2 29 -16
17 -11 -9 -17 -10 -23 -1 -4 7 -20 -2 -45 -28z m59 0 c3 -5 2 -10 -4 -10 -5 0
-13 5 -16 10 -3 6 -2 10 4 10 5 0 13 -4 16 -10z"/>
<path d="M2468 1378 c-16 -25 -29 -58 -24 -58 2 0 15 18 30 40 14 22 22 40 17
40 -5 0 -15 -10 -23 -22z"/>
<path d="M1955 1348 c-3 -18 -10 -42 -15 -53 -12 -28 -23 -75 -25 -105 -4 -82
-40 -243 -67 -303 -17 -37 -28 -70 -25 -74 4 -3 10 -4 13 -1 12 12 52 146 64
213 7 39 15 74 18 80 4 5 5 22 3 37 -1 16 2 28 9 28 6 0 8 5 5 10 -3 6 -3 15
1 22 4 6 8 23 10 37 4 45 27 121 36 121 5 0 6 5 3 10 -12 19 -23 10 -30 -22z"/>
<path d="M2564 1355 c25 -19 36 -19 36 0 0 10 -10 15 -27 15 -27 -1 -27 -1 -9
-15z"/>
<path d="M2502 1340 c-7 -12 -8 -20 -2 -20 5 0 10 5 10 11 0 5 4 7 10 4 6 -3
7 1 4 9 -8 20 -7 20 -22 -4z"/>
<path d="M2415 1330 c-3 -5 -1 -10 4 -10 6 0 11 5 11 10 0 6 -2 10 -4 10 -3 0
-8 -4 -11 -10z"/>
<path d="M1675 1320 c3 -5 8 -10 11 -10 2 0 4 5 4 10 0 6 -5 10 -11 10 -5 0
-7 -4 -4 -10z"/>
<path d="M1621 1307 c2 -1 11 -8 20 -15 13 -10 18 -10 22 1 3 8 -4 14 -21 15
-14 1 -24 1 -21 -1z"/>
<path d="M2487 1303 c-10 -3 -20 -18 -24 -34 -3 -16 -11 -29 -18 -29 -7 0 -13
-6 -12 -12 1 -38 -4 -68 -12 -68 -5 0 -7 10 -4 23 2 12 -6 2 -18 -23 -12 -25
-23 -48 -23 -52 -2 -13 -16 -21 -16 -9 0 7 -5 9 -11 5 -8 -5 -6 -10 5 -16 23
-13 20 -31 -4 -23 -12 4 -20 2 -20 -5 0 -6 5 -8 10 -5 6 3 10 3 11 -2 0 -4 2
-19 3 -32 3 -21 2 -22 -10 -7 -7 10 -15 13 -18 7 -3 -5 0 -12 6 -14 10 -4 9
-8 -2 -16 -12 -8 -12 -11 -1 -11 11 0 11 -3 1 -14 -6 -8 -17 -13 -25 -10 -17
7 -27 -9 -19 -30 5 -13 9 -14 20 -5 11 9 16 6 23 -12 6 -14 10 -18 10 -9 1 9
-4 21 -10 27 -8 8 -7 13 2 18 8 5 10 4 5 -3 -4 -7 -2 -12 3 -12 7 0 11 -24 12
-57 1 -32 4 -49 6 -38 3 11 9 25 13 30 4 6 6 30 4 54 -2 24 1 49 6 56 6 7 9
30 7 51 -4 32 14 104 30 123 5 7 43 -41 43 -56 0 -9 15 -13 54 -13 85 0 86 1
86 89 l0 76 -54 0 c-69 0 -87 14 -55 44 13 11 21 20 18 20 -2 -1 -12 -3 -22
-6z m-177 -363 c0 -5 -4 -10 -10 -10 -5 0 -10 5 -10 10 0 6 5 10 10 10 6 0 10
-4 10 -10z"/>
<path d="M1582 1267 c-5 -6 -12 -23 -15 -37 -6 -23 -5 -23 5 2 6 15 19 29 27
30 11 2 12 6 5 11 -7 4 -16 1 -22 -6z"/>
<path d="M1644 1240 c-16 -22 -32 -40 -36 -40 -5 0 -8 -7 -8 -16 0 -10 -6 -14
-15 -11 -8 4 -17 1 -21 -5 -4 -6 -3 -8 4 -4 6 3 13 2 16 -3 3 -5 -1 -11 -9
-15 -9 -3 -12 -12 -9 -21 5 -13 11 -10 28 14 16 23 29 31 52 31 43 0 56 19 48
69 -4 22 -10 41 -13 41 -4 0 -20 -18 -37 -40z"/>
<path d="M1540 1161 c0 -7 -4 -9 -10 -6 -5 3 -10 2 -10 -4 0 -5 4 -12 9 -15
10 -6 25 24 16 32 -3 3 -5 0 -5 -7z"/>
<path d="M1230 1115 c0 -8 7 -15 15 -15 8 0 15 7 15 15 0 8 -7 15 -15 15 -8 0
-15 -7 -15 -15z"/>
<path d="M1470 1100 c-14 -27 -5 -39 15 -19 9 9 11 19 6 28 -7 11 -11 9 -21
-9z"/>
<path d="M1090 1100 c0 -5 5 -10 10 -10 6 0 10 5 10 10 0 6 -4 10 -10 10 -5 0
-10 -4 -10 -10z"/>
<path d="M1039 1067 c-33 -15 -239 -208 -239 -224 0 -42 81 -54 220 -33 95 15
146 36 146 60 0 11 -5 20 -11 21 -5 0 -3 3 6 7 12 6 14 14 7 40 -10 37 -20 40
-48 12 -21 -21 -50 -27 -50 -11 0 6 5 13 11 17 8 5 6 10 -5 16 -11 6 -14 17
-11 34 3 13 7 35 10 49 6 28 2 29 -36 12z m100 -218 c-15 -9 -32 -2 -24 11 3
5 13 6 21 3 12 -4 13 -8 3 -14z m-89 -25 c0 -2 -7 -4 -15 -4 -8 0 -15 4 -15
10 0 5 7 7 15 4 8 -4 15 -8 15 -10z"/>
<path d="M1504 1069 c-3 -6 -2 -15 3 -20 5 -5 9 -1 9 11 0 23 -2 24 -12 9z"/>
<path d="M1195 1050 c-18 -28 -34 -60 -29 -60 13 0 45 44 42 58 -3 15 -5 15
-13 2z"/>
<path d="M1441 1044 c0 -11 3 -14 6 -6 3 7 2 16 -1 19 -3 4 -6 -2 -5 -13z"/>
<path d="M1451 1021 c-10 -7 -10 -10 -1 -13 9 -3 8 -8 -4 -20 -21 -22 -22 -46
-1 -28 8 7 15 19 15 27 0 7 6 13 13 12 33 -4 55 3 62 19 5 14 4 15 -6 5 -15
-15 -63 -18 -54 -3 8 12 -5 13 -24 1z"/>
<path d="M542 951 c-13 -8 -6 -67 9 -77 15 -9 31 6 20 20 -6 7 -8 21 -5 33 6
23 -6 35 -24 24z"/>
<path d="M2255 950 c3 -5 8 -10 11 -10 2 0 4 5 4 10 0 6 -5 10 -11 10 -5 0 -7
-4 -4 -10z"/>
<path d="M1540 938 c0 -4 -12 -20 -26 -35 -35 -38 -83 -150 -84 -194 0 -59 46
-88 156 -96 64 -5 77 -3 95 13 12 10 23 18 25 17 9 -6 27 -3 21 3 -8 8 44 50
56 46 5 -1 5 3 1 9 -3 6 -3 14 2 18 14 9 36 52 30 58 -2 3 -12 -8 -22 -23 -30
-44 -87 -81 -125 -78 -21 1 -37 -4 -45 -14 -10 -14 -11 -12 -7 11 3 17 1 27
-7 27 -7 0 -9 8 -5 20 4 11 3 20 -2 19 -21 -4 -33 2 -33 16 0 8 -4 15 -10 15
-22 0 -30 38 -15 73 11 26 11 37 2 46 -9 10 -8 11 4 6 13 -5 18 1 21 22 3 23
0 29 -14 29 -10 0 -18 -4 -18 -8z"/>
<path d="M1370 930 c0 -5 9 -8 20 -7 21 1 18 10 -5 13 -8 1 -15 -2 -15 -6z"/>
<path d="M1440 936 c0 -2 7 -7 16 -10 8 -3 12 -2 9 4 -6 10 -25 14 -25 6z"/>
<path d="M2245 920 c3 -5 8 -10 11 -10 2 0 4 5 4 10 0 6 -5 10 -11 10 -5 0 -7
-4 -4 -10z"/>
<path d="M102 890 c0 -14 2 -19 5 -12 2 6 2 18 0 25 -3 6 -5 1 -5 -13z"/>
<path d="M1397 892 c1 -8 3 -18 3 -23 0 -5 4 -9 8 -9 4 0 8 9 8 19 0 11 -3 18
-7 15 -4 -2 -9 -1 -12 3 -2 5 -2 2 0 -5z"/>
<path d="M2200 890 c0 -5 5 -10 10 -10 6 0 10 5 10 10 0 6 -4 10 -10 10 -5 0
-10 -4 -10 -10z"/>
<path d="M2280 895 c0 -7 30 -13 34 -7 3 4 -4 9 -15 9 -10 1 -19 0 -19 -2z"/>
<path d="M340 845 c-17 -10 -20 -14 -9 -15 31 0 79 12 79 21 0 14 -42 10 -70
-6z"/>
<path d="M1351 853 c-1 -7 -1 -16 -2 -20 0 -4 10 -11 23 -15 20 -7 21 -6 7 4
-9 7 -18 20 -22 28 -3 9 -6 10 -6 3z"/>
<path d="M1405 840 c-11 -5 -14 -9 -6 -9 8 -1 11 -8 7 -18 -5 -15 -4 -15 9 1
8 11 15 23 15 28 0 9 1 9 -25 -2z"/>
<path d="M2145 830 c-3 -5 -1 -10 4 -10 6 0 11 5 11 10 0 6 -2 10 -4 10 -3 0
-8 -4 -11 -10z"/>
<path d="M2195 791 c-3 -8 -3 -12 1 -8 4 4 13 2 21 -5 11 -8 12 -7 7 6 -7 17
11 23 19 6 3 -6 4 -5 3 2 -4 19 -44 18 -51 -1z"/>
<path d="M1360 782 c0 -15 -6 -22 -20 -22 -11 0 -20 -4 -20 -10 0 -5 -8 -10
-17 -10 -15 0 -16 -2 -3 -10 10 -6 16 -6 18 0 2 6 8 8 12 5 5 -3 7 -12 3 -20
-7 -19 4 -19 23 0 9 8 11 15 5 15 -6 0 -11 5 -11 11 0 6 7 9 15 5 12 -4 14 0
9 22 -9 35 -14 41 -14 14z"/>
<path d="M2270 790 c0 -5 5 -10 10 -10 6 0 10 5 10 10 0 6 -4 10 -10 10 -5 0
-10 -4 -10 -10z"/>
<path d="M2350 779 c0 -11 4 -18 10 -14 5 3 7 12 3 20 -7 21 -13 19 -13 -6z"/>
<path d="M2152 778 c-14 -14 -16 -28 -3 -28 5 0 11 9 14 20 6 23 5 24 -11 8z"/>
<path d="M1145 760 c-3 -5 -1 -10 4 -10 6 0 11 5 11 10 0 6 -2 10 -4 10 -3 0
-8 -4 -11 -10z"/>
<path d="M2196 725 c8 -13 13 -29 9 -35 -3 -5 -1 -10 4 -10 12 0 14 29 5 54
-3 9 -13 16 -20 16 -12 0 -12 -4 2 -25z"/>
<path d="M2340 739 c0 -6 -14 -9 -32 -7 -27 2 -33 0 -33 -17 0 -26 66 -45 89
-25 24 19 21 60 -4 60 -11 0 -20 -5 -20 -11z"/>
<path d="M2077 714 c-10 -11 3 -24 24 -24 12 0 19 7 18 18 0 11 -2 12 -6 4 -3
-9 -9 -10 -17 -3 -7 6 -16 8 -19 5z"/>
<path d="M1214 695 c-3 -8 -4 -20 -2 -27 3 -7 7 -1 10 15 6 29 1 36 -8 12z"/>
<path d="M1260 681 c0 -5 9 -7 20 -4 15 4 20 0 21 -13 0 -15 2 -15 6 -4 3 8
11 18 17 22 6 4 -6 8 -26 8 -21 0 -38 -4 -38 -9z"/>
<path d="M1955 650 c3 -5 8 -10 11 -10 2 0 4 5 4 10 0 6 -5 10 -11 10 -5 0 -7
-4 -4 -10z"/>
<path d="M2245 640 c-3 -5 -1 -10 4 -10 6 0 11 5 11 10 0 6 -2 10 -4 10 -3 0
-8 -4 -11 -10z"/>
<path d="M1248 628 c5 -5 16 -8 23 -6 8 3 3 7 -10 11 -17 4 -21 3 -13 -5z"/>
<path d="M2092 624 c-6 -7 -8 -15 -3 -19 5 -3 11 1 14 7 3 9 10 7 21 -7 12
-15 15 -16 16 -5 0 24 -33 40 -48 24z"/>
<path d="M1220 601 c-7 -15 -7 -21 0 -21 12 0 25 28 17 36 -3 3 -10 -4 -17
-15z"/>
<path d="M1180 600 c0 -5 5 -10 11 -10 5 0 7 5 4 10 -3 6 -8 10 -11 10 -2 0
-4 -4 -4 -10z"/>
<path d="M2051 591 c-9 -6 -7 -10 8 -14 12 -3 21 -1 21 3 0 14 -15 19 -29 11z"/>
<path d="M1126 554 c-10 -25 -7 -34 10 -34 14 0 14 3 4 15 -10 12 -10 15 4 15
9 0 16 5 16 10 0 16 -27 11 -34 -6z"/>
<path d="M2207 555 c2 -8 11 -11 19 -8 16 6 11 16 -11 19 -8 1 -11 -4 -8 -11z"/>
<path d="M720 520 c0 -5 6 -10 14 -10 8 0 18 5 21 10 3 6 -3 10 -14 10 -12 0
-21 -4 -21 -10z"/>
<path d="M1065 510 c3 -5 8 -10 11 -10 2 0 4 5 4 10 0 6 -5 10 -11 10 -5 0 -7
-4 -4 -10z"/>
<path d="M2030 501 c0 -5 7 -11 15 -15 8 -3 15 -1 15 3 0 5 -7 11 -15 15 -8 3
-15 1 -15 -3z"/>
<path d="M636 485 c4 -8 8 -15 10 -15 2 0 4 7 4 15 0 8 -4 15 -10 15 -5 0 -7
-7 -4 -15z"/>
<path d="M2177 463 c6 -16 8 -16 23 1 9 12 8 15 -8 13 -12 0 -18 -6 -15 -14z"/>
<path d="M1030 435 c-77 -26 -310 -49 -310 -31 0 7 -3 7 -8 0 -4 -6 -27 -12
-52 -12 -120 0 -163 -2 -158 -7 10 -10 242 -6 339 5 119 14 261 40 273 51 13
12 -44 8 -84 -6z"/>
<path d="M1055 410 c-13 -6 -15 -9 -5 -9 8 0 22 4 30 9 18 12 2 12 -25 0z"/>
<path d="M2187 413 c-4 -3 -7 -11 -7 -17 0 -6 5 -5 12 2 6 6 9 14 7 17 -3 3
-9 2 -12 -2z"/>
<path d="M998 393 c6 -2 18 -2 25 0 6 3 1 5 -13 5 -14 0 -19 -2 -12 -5z"/>
<path d="M948 383 c6 -2 18 -2 25 0 6 3 1 5 -13 5 -14 0 -19 -2 -12 -5z"/>
<path d="M790 369 c-41 -5 -82 -11 -90 -13 -23 -8 150 5 195 14 l40 8 -35 0
c-19 -1 -69 -4 -110 -9z"/>
<path d="M2143 366 c4 -11 -88 -59 -133 -71 -42 -10 -153 -51 -182 -66 -18 -9
-83 -27 -133 -36 -16 -3 -32 -9 -35 -13 -3 -4 -29 -3 -58 3 -45 10 -55 9 -69
-6 -16 -16 -16 -17 2 -17 15 -1 13 -4 -10 -16 -28 -13 -26 -14 44 -9 88 6 189
31 332 81 133 46 206 84 248 128 31 31 32 35 12 33 -12 -1 -20 -6 -18 -11z
m-556 -212 c-3 -3 -12 -4 -19 -1 -8 3 -5 6 6 6 11 1 17 -2 13 -5z"/>
<path d="M1445 160 c-18 -8 -17 -9 7 -9 15 -1 30 4 33 9 7 12 -12 12 -40 0z"/>
<path d="M1283 143 c15 -2 37 -2 50 0 12 2 0 4 -28 4 -27 0 -38 -2 -22 -4z"/>
</g>
</svg>
