<?xml version="1.0" standalone="no"?>
<!DOCTYPE svg PUBLIC "-//W3C//DTD SVG 20010904//EN"
 "http://www.w3.org/TR/2001/REC-SVG-20010904/DTD/svg10.dtd">
<svg version="1.0" xmlns="http://www.w3.org/2000/svg"
 width="260.000000pt" height="260.000000pt" viewBox="0 0 260.000000 260.000000"
 preserveAspectRatio="xMidYMid meet">
<metadata>
Created by potrace 1.14, written by Peter Selinger 2001-2017
</metadata>
<g transform="translate(0.000000,260.000000) scale(0.100000,-0.100000)"
fill="#000000" stroke="none">
<path d="M359 2437 c-113 -90 -193 -187 -257 -313 -82 -162 -83 -292 -5 -469
59 -131 128 -352 149 -475 28 -158 32 -190 39 -286 3 -39 7 -80 10 -92 8 -44
18 -230 18 -345 0 -112 1 -119 21 -126 25 -10 77 -8 94 2 8 5 10 29 7 75 -6
91 -6 552 0 682 15 314 11 302 93 315 26 3 54 8 63 10 43 8 114 -102 207 -322
59 -139 139 -375 157 -462 10 -51 47 -146 93 -240 60 -122 136 -165 332 -187
98 -12 398 -5 440 10 8 3 40 8 70 11 30 3 98 12 150 21 52 9 104 17 115 18 46
7 104 19 160 33 33 8 68 17 79 19 36 7 121 34 131 41 19 15 45 71 45 98 0 32
-16 64 -44 88 -25 22 -226 121 -361 177 -94 39 -288 133 -310 150 -29 23 -127
39 -235 38 -97 -1 -124 2 -170 21 -99 39 -147 97 -190 228 -69 208 -145 360
-278 553 -109 158 -404 580 -424 605 -5 6 -32 42 -60 80 -29 39 -57 75 -63 81
-8 8 -28 -2 -76 -39z"/>
</g>
</svg>
