<?xml version="1.0" standalone="no"?>
<!DOCTYPE svg PUBLIC "-//W3C//DTD SVG 20010904//EN"
 "http://www.w3.org/TR/2001/REC-SVG-20010904/DTD/svg10.dtd">
<svg version="1.0" xmlns="http://www.w3.org/2000/svg"
 width="260.000000pt" height="260.000000pt" viewBox="0 0 260.000000 260.000000"
 preserveAspectRatio="xMidYMid meet">
<metadata>
Created by potrace 1.14, written by Peter Selinger 2001-2017
</metadata>
<g transform="translate(0.000000,260.000000) scale(0.100000,-0.100000)"
fill="#000000" stroke="none">
<path d="M348 2427 c-113 -91 -183 -177 -246 -303 -52 -102 -66 -166 -59 -269
6 -77 13 -104 51 -190 134 -305 201 -651 213 -1108 4 -146 9 -220 17 -223 23
-8 72 -11 91 -4 19 7 19 18 17 336 -4 389 10 691 32 713 9 8 41 20 73 27 89
18 103 6 188 -158 79 -152 140 -313 216 -563 89 -297 138 -387 234 -431 140
-64 412 -73 754 -24 222 31 412 68 523 101 57 17 72 26 93 57 47 69 29 126
-55 177 -61 37 -179 93 -330 157 -52 21 -159 72 -238 111 l-143 72 -132 1
c-146 1 -194 10 -254 51 -67 46 -94 88 -143 226 -61 171 -121 303 -178 391
-109 169 -551 796 -629 893 l-18 22 -77 -62z"/>
</g>
</svg>
